<svg xmlns="http://www.w3.org/2000/svg" xmlns:xlink="http://www.w3.org/1999/xlink" width="66" height="60" viewBox="0 0 66 60"><defs><clipPath id="a"><path d="M102.814,308.33l-.2,6.384-.091,2.849-4.645,1.166-1.238.314c-2.557-1.727-2.18-6.213-2.18-6.213l1.246-.9.747.149S101.148,308.592,102.814,308.33Z" transform="translate(-94.436 -308.33)" fill="#407bff"/></clipPath><clipPath id="b"><path d="M248.215,291.358a3.924,3.924,0,0,1-1.392,2.322,2.16,2.16,0,0,1-.862.413l-5.18,2.871a12.15,12.15,0,0,1-.826-5.418,8.506,8.506,0,0,1,.826-2.982l4.979-.881.461-.461h.819A4.451,4.451,0,0,1,248.215,291.358Z" transform="translate(-239.912 -287.22)" fill="#407bff"/></clipPath></defs><g transform="translate(-221.357 -259.306)"><g transform="translate(221.357 259.306)"><path d="M48.154,121.178c3.683,3.709,12.462,2.1,16.218-.4C76.569,112.652,97.963,99.1,98.48,80.24c.221-8.021-6.93-12.05-9.9-13.213-7.151-2.788-14.92-3.484-22.584-3.638-8.006-.153-16.576.333-23.679,4.423a19.6,19.6,0,0,0-6.915,6.15,18.737,18.737,0,0,0-2.871,9.008c-.315,5.119,1.184,10.207,3.371,14.842a150.72,150.72,0,0,0,7.709,13.3C45.334,113.973,45.05,118.053,48.154,121.178Z" transform="translate(-32.485 -63.365)" fill="#407bff"/><path d="M48.154,121.178c3.683,3.709,12.462,2.1,16.218-.4C76.569,112.652,97.963,99.1,98.48,80.24c.221-8.021-6.93-12.05-9.9-13.213-7.151-2.788-14.92-3.484-22.584-3.638-8.006-.153-16.576.333-23.679,4.423a19.6,19.6,0,0,0-6.915,6.15,18.737,18.737,0,0,0-2.871,9.008c-.315,5.119,1.184,10.207,3.371,14.842a150.72,150.72,0,0,0,7.709,13.3C45.334,113.973,45.05,118.053,48.154,121.178Z" transform="translate(-32.485 -63.365)" fill="#ecf2ff"/></g><g transform="translate(228.495 263.653)"><g transform="translate(5.794)"><path d="M121.94,139.622v8.446h-9.19V137.25h6.819l1.595,1.595Z" transform="translate(-112.75 -131.656)" fill="#407bff"/><line x2="5.96" transform="translate(2.044 7.22)" fill="none"/><line x2="6.798" transform="translate(1.205 8.301)" fill="none"/><line x2="6.798" transform="translate(1.205 9.384)" fill="none"/><line x2="6.798" transform="translate(1.205 10.466)" fill="none"/><line x2="6.798" transform="translate(1.205 11.549)" fill="none"/><line x2="6.798" transform="translate(1.205 12.63)" fill="none"/><line x2="6.798" transform="translate(1.205 13.712)" fill="none"/><line x2="5.96" transform="translate(1.205 14.795)" fill="none"/><path d="M158.562,139.622H156.19V137.25l1.595,1.595Z" transform="translate(-149.371 -131.656)" fill="#407bff"/><path d="M313.729,122.522v8.446H304.54V120.15h6.819l1.593,1.595Z" transform="translate(-274.436 -117.24)" fill="#407bff"/><line x2="5.96" transform="translate(32.148 4.536)" fill="none"/><line x2="6.8" transform="translate(31.308 5.619)" fill="none"/><line x2="6.8" transform="translate(31.308 6.7)" fill="none"/><line x2="6.8" transform="translate(31.308 7.782)" fill="none"/><line x2="6.8" transform="translate(31.308 8.865)" fill="none"/><line x2="6.8" transform="translate(31.308 9.946)" fill="none"/><line x2="6.8" transform="translate(31.308 11.029)" fill="none"/><line x2="5.962" transform="translate(31.308 12.111)" fill="none"/><path d="M350.35,122.522h-2.37V120.15l1.593,1.595Z" transform="translate(-311.057 -117.24)" fill="#407bff"/><path d="M364.352,191.73v.942h-.942" transform="translate(-324.065 -177.585)" fill="none"/><line x1="6.505" transform="translate(30.982 15.087)" fill="none"/><path d="M299.152,192.672h-.942v-.942" transform="translate(-269.099 -177.585)" fill="none"/><line y1="9.154" transform="translate(29.111 3.326)" fill="none"/><path d="M298.21,112.442V111.5h.942" transform="translate(-269.099 -109.948)" fill="none"/><line x2="6.505" transform="translate(31.911 1.552)" fill="none"/><path d="M363.41,111.5h.942v.942" transform="translate(-324.065 -109.948)" fill="none"/><line y2="9.154" transform="translate(40.287 4.157)" fill="none"/><line y1="2.631" x2="16.739" transform="translate(10.313 8.626)" fill="none"/><path d="M284.452,155.016l-.512-.2.122.581Z" transform="translate(-257.069 -146.468)" fill="#263238"/><path d="M177.7,172.411a.169.169,0,1,1-.05-.121A.171.171,0,0,1,177.7,172.411Z" transform="translate(-167.218 -161.154)" fill="#263238"/><circle cx="1.386" cy="1.386" r="1.386" transform="translate(37.964 1.96) rotate(-45)" fill="#fff"/><line y2="1.428" transform="translate(39.924 1.246)" fill="none"/><line x1="1.427" transform="translate(39.212 1.96)" fill="none"/></g><g transform="translate(0 11.576)"><path d="M215.257,253.992c-.185,0-.546-.509-.757-.832,0,.669,0,2.376.3,2.267C215.155,255.29,215.531,253.992,215.257,253.992Z" transform="translate(-192.319 -241.829)" fill="#fff"/><path d="M166.159,232.644a1.272,1.272,0,0,1-.413.314,4.063,4.063,0,0,1-1.942.314c-3.2-.122-8.062-2.552-6.151-8.556,1.171-3.686,6.5-2.458,7.862-1.055a6.106,6.106,0,0,1,1.129,2.736c.093.443-.093.909-.041,1.381.046.427.333.859.341,1.284A5.929,5.929,0,0,1,166.159,232.644Z" transform="translate(-144.032 -215.796)" fill="#fff"/><path d="M201.1,287.715a4.065,4.065,0,0,1-1.942.314,9.372,9.372,0,0,1,.54-.8A3.617,3.617,0,0,1,201.1,287.715Z" transform="translate(-179.387 -270.552)" fill="#263238"/><path d="M174.242,282.445s-.29,3.635.188,4.455-4.134,1.64-5.98,0a15.3,15.3,0,0,0,.953-5.32" transform="translate(-153.497 -265.789)" fill="#fff"/><path d="M156,216.491a2.1,2.1,0,0,0,.951-2.624c-.683-2.843-2.221-1.086-2.733-1.51a2.774,2.774,0,0,0-3.554-.218c-1.231,1.038-1.981,1.154-3.552,2.634s-1.57,4.8,0,6.111,1.981,2.694,3.485,3.132,3.745-.157,4.2-1.292a5.808,5.808,0,0,0,.451-1.928A6.646,6.646,0,0,0,156,216.491Z" transform="translate(-134.518 -206.774)" fill="#263238"/><path d="M202.128,257.2s-.325-1.413-.531-1.521-.837,1.121-.819,1.61a2.893,2.893,0,0,0,1.008,1.57c.325.207.438-.375.449-.444" transform="translate(-180.751 -243.951)" fill="#fff"/><path d="M205.979,260.73a2.187,2.187,0,0,0,.119,1.519" transform="translate(-185.063 -248.211)" fill="none"/><path d="M205.88,232.57a1.783,1.783,0,0,1-.531,1.276" transform="translate(-184.605 -224.471)" fill="none" opacity="0.2"/><path d="M192.71,219.182a2.927,2.927,0,0,1,1.756-.358c.688.181.768,1.158.774,1.744" transform="translate(-173.949 -212.85)" fill="none" opacity="0.2"/><path d="M197.891,248.59a3.9,3.9,0,0,1-.3.717" transform="translate(-178.063 -237.977)" fill="none" opacity="0.2"/><path d="M184,227.84a2.138,2.138,0,0,1,1.943.146,2.838,2.838,0,0,1,.587,2.623" transform="translate(-166.607 -220.348)" fill="none" opacity="0.2"/><path d="M184.07,243.28c.542.992.532,3.018-.72,3.5" transform="translate(-166.059 -233.5)" fill="none" opacity="0.2"/><path d="M176.63,235.673c.534-.325,1.3.451,1.581.824" transform="translate(-160.394 -227.021)" fill="none" opacity="0.2"/><path d="M181.139,215.014a.785.785,0,0,0-.819-.286" transform="translate(-163.504 -209.41)" fill="none" opacity="0.2"/><path d="M187.077,219.168a2.8,2.8,0,0,0-.257-.628" transform="translate(-168.984 -212.644)" fill="none" opacity="0.2"/><path d="M172.569,223.07s.083-1.618-1.1-1.174" transform="translate(-156.043 -215.407)" fill="none" opacity="0.2"/><path d="M159.382,229.809a1.1,1.1,0,0,0-.692.127" transform="translate(-145.269 -222.134)" fill="none" opacity="0.2"/><path d="M165.543,231.461a1.727,1.727,0,0,0-.713-.961" transform="translate(-150.446 -222.726)" fill="none" opacity="0.2"/><path d="M163.45,271.41a2.858,2.858,0,0,0,.557.314" transform="translate(-149.282 -257.215)" fill="none" opacity="0.2"/><path d="M157.747,246.76c-.314,1-.425,2.825.411,3.64" transform="translate(-144.277 -236.434)" fill="none" opacity="0.2"/><path d="M161.252,239.824a1.091,1.091,0,0,0-1.512.7" transform="translate(-146.155 -230.492)" fill="none" opacity="0.2"/><path d="M165.81,294.732l.768-2.219s5.547-.73,6.874,1.11S165.81,294.732,165.81,294.732Z" transform="translate(-151.272 -274.885)" fill="#407bff"/><path d="M99.2,245.4s-.628-1.028-.578-1.29-.11-1.488,0-2.081c.113-.628.579-.488.579-.488s.19-1.2.686-1.108a7.917,7.917,0,0,1,.245-1.777c.177-.311.267-.5.267-.5s.355-.157.355.37v1.508l.4-1.6.578-.8a.863.863,0,0,1,.066,1.017,13.8,13.8,0,0,0,0,3.2,1.086,1.086,0,0,0,.739-.666,1.2,1.2,0,0,1,.722-.7c.52-.14.035.48-.157,1.369a7.884,7.884,0,0,1-2.028,3.24" transform="translate(-94.594 -228.745)" fill="#fff"/><path d="M80,280.43l-1.545,8.862,4.75-2.772-.964,6.847s-6.112,2.825-7.486,3.122-1.717-3.61-1.512-4.643,4-8.843,4.467-11.049" transform="translate(-73.19 -264.819)" fill="#fff"/><path d="M83.7,340.753a8.543,8.543,0,0,1,2.656-1.413" transform="translate(-82.05 -314.482)" fill="none"/><path d="M102.814,308.33l-.2,6.384-.091,2.849-4.645,1.166-1.238.314c-2.557-1.727-2.18-6.213-2.18-6.213l1.246-.9.747.149S101.148,308.592,102.814,308.33Z" transform="translate(-91.101 -288.34)" fill="#407bff"/><g transform="translate(3.335 19.99)" clip-path="url(#a)"><path d="M120.475,332.628l-.091,2.849-4.645,1.166c-.41-1.235.438-.9.438-.9a2.625,2.625,0,0,1-.435-1.413l.855.394a3.576,3.576,0,0,1,.355-2.77l.157,1.413c-.157-1.413,1.515-3.791,1.515-3.791A6.408,6.408,0,0,1,120.475,332.628Z" transform="translate(-112.301 -326.245)" fill="rgba(0,0,0,0.7)" opacity="0.2"/></g><path d="M102.814,308.33l-.2,6.384-.091,2.849-4.645,1.166-1.238.314c-2.557-1.727-2.18-6.213-2.18-6.213l1.246-.9.747.149S101.148,308.592,102.814,308.33Z" transform="translate(-91.101 -288.34)" fill="none"/><path d="M123.09,349.29a5.28,5.28,0,0,0,.612,2.4" transform="translate(-115.257 -322.87)" fill="none"/><path d="M116.36,362.42a6.018,6.018,0,0,0,1.711,1.48" transform="translate(-109.584 -333.939)" fill="none"/><path d="M104.609,332.2a5.39,5.39,0,0,0-.347,3.379" transform="translate(-99.261 -308.463)" fill="none"/><path d="M127.987,299.868c-.7,2.075-.942,5.872-.989,9.443-.06,4.437.176,8.526.176,8.526,3.7,6.29,12.049,3.684,15.069,2.478h.016c.691-.278,1.1-.479,1.1-.479a95.142,95.142,0,0,0,1.975-10.7h0a62.666,62.666,0,0,0,.5-10.561,24.225,24.225,0,0,0-.246-2.739s-2.645.033-5.77.254h0c-1.692.119-3.524.292-5.153.545a21.576,21.576,0,0,0-3.031.678c-.531.157-1.4.457-1.788.6a6.748,6.748,0,0,0-.644.314" transform="translate(-118.544 -277.81)" fill="#407bff"/><path d="M164.694,297.42a19.751,19.751,0,0,1-5.316,1.612,8.786,8.786,0,0,1-2.868-.389,21.562,21.562,0,0,1,3.031-.678C161.17,297.712,163,297.539,164.694,297.42Z" transform="translate(-143.432 -279.142)" fill="rgba(0,0,0,0.7)" opacity="0.2"/><path d="M142.2,339.95c-3.014,1.205-11.361,3.811-15.069-2.479,0,0-.235-4.089-.176-8.526,1.19,2.449,5.111,4.034,5.111,4.034s-.433-4.8,0-5.957,1.662-7.892,1.662-7.892.471,1.351-.275,5.035a40.992,40.992,0,0,0-.414,8.814,30.836,30.836,0,0,0,6.206,0c-3.146,4.467-10.094,5.221-10.094,5.221C133.96,342.235,141.812,340.061,142.2,339.95Z" transform="translate(-118.51 -297.444)" fill="rgba(0,0,0,0.7)" opacity="0.2"/><path d="M226.679,321.931c-.132-1.042-.256-1.829-.256-1.829-.314,2.475-3.582,3.27-2.816,2.433a24.8,24.8,0,0,0,2.132-3.453c-.7-2.05.444-8.062.444-8.062s.4.108,1,.344A62.716,62.716,0,0,1,226.679,321.931Z" transform="translate(-199.899 -290.607)" fill="rgba(0,0,0,0.7)" opacity="0.2"/><path d="M155.187,319.807a95.137,95.137,0,0,0,1.975-10.7h0a62.669,62.669,0,0,0,.5-10.561,24.239,24.239,0,0,0-.246-2.739s-2.645.033-5.77.254h0c-1.692.119-3.524.292-5.153.545a21.581,21.581,0,0,0-3.031.678c-.531.157-1.4.457-1.788.6a6.77,6.77,0,0,0-.644.314" transform="translate(-130.382 -277.785)" fill="none"/><path d="M127.987,321.5c-.7,2.075-.942,5.872-.989,9.443-.06,4.437.176,8.526.176,8.526" transform="translate(-118.544 -299.442)" fill="none"/><path d="M172.922,297.25s-5.748,2.292-7.112,2.158" transform="translate(-151.272 -278.999)" fill="none"/><path d="M159.3,317s-1.667,11.286-1.108,15.136c0,0-.463,3.7-.976,6.01" transform="translate(-144.03 -295.649)" fill="none"/><path d="M136.986,401.19s-.251,1.738,4.158,1.924a11.426,11.426,0,0,0,6.869-1.615" transform="translate(-126.97 -366.624)" fill="none"/><path d="M324.86,188.84a12.881,12.881,0,0,1,0-3.488,21.009,21.009,0,0,0,1.22-1.752c.221.017.157.367.157.367s1.333-2.3,1.639-2.764.513-.157.461.356c0,0,.366-.752.531-.521.323.455-.427,2.723-.427,2.723a.609.609,0,0,1,.645.719s.413-.129.447.542c.023.446-.192,1.755-.65,1.482a4.055,4.055,0,0,1-2.041,2.766" transform="translate(-285.257 -180.975)" fill="#fff"/><path d="M328.828,200s-.427.76-.717,1.29a1.949,1.949,0,0,0-.29.819" transform="translate(-287.852 -197.014)" fill="none"/><path d="M341.2,184.7s-.992,2.1-1.2,2.4" transform="translate(-298.12 -184.115)" fill="none"/><path d="M345.894,198.73s-.394.394-.444.454" transform="translate(-302.715 -195.943)" fill="none"/><path d="M350.207,203.31s-.157.127-.407.333" transform="translate(-306.382 -199.804)" fill="none"/><path d="M351.1,209.962s.086-.6.086-.648.273-.24.358-.513" transform="translate(-307.478 -204.432)" fill="none"/><path d="M281.86,226.11a31.625,31.625,0,0,1-2.119,4.238,54.175,54.175,0,0,0-2.6,5.23l-3.511.962.907,5.621s6.057-3.2,6.255-3.626,1.691-4.98,2.2-7.043,1.138-4.58,1.138-4.58" transform="translate(-242.168 -219.025)" fill="#fff"/><path d="M248.215,291.358a3.924,3.924,0,0,1-1.392,2.322,2.16,2.16,0,0,1-.862.413l-5.18,2.871a12.15,12.15,0,0,1-.826-5.418,8.506,8.506,0,0,1,.826-2.982l4.979-.881.461-.461h.819A4.451,4.451,0,0,1,248.215,291.358Z" transform="translate(-213.742 -270.543)" fill="#407bff"/><g transform="translate(26.17 16.677)" clip-path="url(#b)"><path d="M246.823,316.9a2.16,2.16,0,0,1-.862.413l-5.18,2.871a12.15,12.15,0,0,1-.826-5.418c.978.11.655,3.4,1,3.442.372.042,1.987-2.386,2.318-2.386.529,0,.017,2.312,0,2.386.072-.025,2.383-.89,3.048-2.152C246.65,315.434,246.89,315.968,246.823,316.9Z" transform="translate(-239.912 -310.446)" fill="rgba(0,0,0,0.7)" opacity="0.2"/></g><path d="M248.215,291.358a3.924,3.924,0,0,1-1.392,2.322,2.16,2.16,0,0,1-.862.413l-5.18,2.871a12.15,12.15,0,0,1-.826-5.418,8.506,8.506,0,0,1,.826-2.982l4.979-.881.461-.461h.819A4.451,4.451,0,0,1,248.215,291.358Z" transform="translate(-213.742 -270.543)" fill="none"/><path d="M277.14,290.19a4.166,4.166,0,0,1,1.1,3.379" transform="translate(-245.127 -273.047)" fill="none"/><path d="M231.31,328.37a16.96,16.96,0,0,0-1.975,3.284s-1.256,4.127-2.995,5.266" transform="translate(-202.301 -305.234)" fill="none"/><path d="M296,286.006a1.636,1.636,0,0,1,1.234.1" transform="translate(-261.027 -269.453)" fill="none"/></g></g></g></svg>