<svg xmlns="http://www.w3.org/2000/svg" width="41.466" height="41.345" viewBox="0 0 41.466 41.345"><g transform="translate(-0.001 -0.063)"><path d="M1.055,4.095,12.111,7.352a2.6,2.6,0,0,1,.936.5l3.362,2.8,2.829-3.035L14.592,3.842a1.135,1.135,0,0,0-.4-.209L2.228.109A1.139,1.139,0,0,0,.813.88l-.529,1.8a1.139,1.139,0,0,0,.77,1.413Zm0,0" transform="translate(-0.218 0)" fill="#a4a4a4"/><path d="M214.223,107.032a.74.74,0,0,1,.253.429L219.62,134.2a3.016,3.016,0,0,0,4.18,2.19l7.692-3.4a.741.741,0,0,1,.985.4.988.988,0,0,0,1.289.541l3.748-1.538a.987.987,0,0,0,.54-1.288l-7-17.072a.74.74,0,0,1,.126-.765l.8-.928a1.139,1.139,0,0,0-.115-1.605l-7.807-6.764a1.14,1.14,0,0,0-1.607.119L220.72,106.1a.741.741,0,0,1-1.036.084l-2.859-2.382-2.836,3.041Zm9.476,26.981a1.681,1.681,0,0,1-2.339-1.284l-1.732-11.445a3.535,3.535,0,0,1,.547-2.486l1.93,1.525a4.849,4.849,0,0,1,1.622,2.3l3.331,9.9Zm-1.184-16.764,1.11-.2a3.577,3.577,0,0,1,4,2.369l3.553,10.557a.74.74,0,0,1-.4.914l-2.351,1.039-3.29-9.768a6.305,6.305,0,0,0-2.114-3l-1.784-1.413a3.577,3.577,0,0,1,1.284-.5Zm-4.035-5.19,1.049,4.442a.74.74,0,0,1-.551.888.7.7,0,0,1-.171.02.74.74,0,0,1-.72-.57l-1.049-4.442a.741.741,0,0,1,1.442-.341Zm-2.073-4.434a.74.74,0,0,1,.9.534l.37,1.45a.74.74,0,0,1-.535.9.708.708,0,0,1-.184.023.74.74,0,0,1-.716-.557l-.369-1.448a.74.74,0,0,1,.535-.9Zm0,0" transform="translate(-196.661 -95.238)" fill="#a4a4a4"/><path d="M3.7,155.883a3.58,3.58,0,0,0,3.7-3.7c0-1.713-2.4-5.526-3.7-7.033-1.3,1.506-3.7,5.319-3.7,7.033a3.58,3.58,0,0,0,3.7,3.7Zm0,0" transform="translate(0 -133.338)" fill="#a4a4a4"/></g></svg>