<svg xmlns="http://www.w3.org/2000/svg" width="32.377" height="32.377" viewBox="0 0 32.377 32.377"><path d="M17.58,24.1V17.453h8.031A3.8,3.8,0,0,0,29.4,13.659V8.281a4.237,4.237,0,1,0-2.529,0v5.378a1.266,1.266,0,0,1-1.265,1.265H17.58V8.281a4.237,4.237,0,1,0-2.529,0v6.643H6.766A1.266,1.266,0,0,1,5.5,13.659V8.281a4.237,4.237,0,1,0-2.529,0v5.378a3.779,3.779,0,0,0,.969,2.529,3.779,3.779,0,0,0-.969,2.529V24.1a4.237,4.237,0,1,0,2.529,0V18.718a1.266,1.266,0,0,1,1.265-1.265H15.05V24.1a4.237,4.237,0,1,0,2.529,0ZM28.14,2.529a1.707,1.707,0,1,1-1.707,1.707A1.709,1.709,0,0,1,28.14,2.529Zm-11.825,0a1.707,1.707,0,1,1-1.707,1.707A1.709,1.709,0,0,1,16.315,2.529Zm-12.078,0A1.707,1.707,0,1,1,2.529,4.237,1.709,1.709,0,0,1,4.237,2.529Zm0,27.318A1.707,1.707,0,1,1,5.944,28.14,1.709,1.709,0,0,1,4.237,29.848Zm12.078,0a1.707,1.707,0,1,1,1.707-1.707A1.709,1.709,0,0,1,16.315,29.848ZM32.377,25.01a3.514,3.514,0,0,0-3.51-3.51H24.662V32.377h2.529V28.52h.337l1.964,3.857h2.839l-2.1-4.132A3.515,3.515,0,0,0,32.377,25.01Zm-5.185-.98h1.676a.98.98,0,0,1,0,1.96H27.192Z" fill="#a4a4a4"/></svg>