<svg xmlns="http://www.w3.org/2000/svg" width="72" height="48" viewBox="0 0 72 48"><g transform="translate(-24.966 -265.268)"><g transform="translate(24.966 265.268)"><path d="M76.744,166.056c2.1-7.2,12.545-11.254,21.827-9.37,8.1,1.645,11.264,7.425,20.294,7.444,8.4.015,15.9-2.2,23.545,3.86,6.014,4.769,5.825,11.159,4.809,17.439-2.78,17.166-14.41,22.3-33.745,16.522-9.24-2.763-20.349-7.133-27.842-12.894C76.632,182.143,74.136,174.989,76.744,166.056Z" transform="translate(-75.767 -156.226)" fill="#407bff"/><path d="M76.744,166.056c2.1-7.2,12.545-11.254,21.827-9.37,8.1,1.645,11.264,7.425,20.294,7.444,8.4.015,15.9-2.2,23.545,3.86,6.014,4.769,5.825,11.159,4.809,17.439-2.78,17.166-14.41,22.3-33.745,16.522-9.24-2.763-20.349-7.133-27.842-12.894C76.632,182.143,74.136,174.989,76.744,166.056Z" transform="translate(-75.767 -156.226)" fill="#ecf2ff"/></g><g transform="translate(31 284.81)"><path d="M211.383,337.775c1.89,0,3.422-3.034,3.422-6.778s-1.532-6.778-3.422-6.778H207v13.555Z" transform="translate(-183.076 -314.576)" fill="#263238"/><ellipse cx="3.422" cy="6.778" rx="3.422" ry="6.778" transform="translate(20.554 9.644)" fill="#263238"/><path d="M377.71,337.775c1.89,0,3.42-3.034,3.42-6.778s-1.525-6.778-3.42-6.778h-4.39v13.555Z" transform="translate(-324.887 -314.576)" fill="#263238"/><ellipse cx="3.422" cy="6.778" rx="3.422" ry="6.778" transform="translate(44.995 9.644)" fill="#263238"/><path d="M51.577,321.387l-2.344-.578a2.8,2.8,0,0,1-1.843-1.479h0a2.8,2.8,0,0,0-.65-.852l-.576-.513a2.8,2.8,0,0,1-.926-2.36l.317-3.318a2.8,2.8,0,0,1,1.994-2.421l1.676-.495,6.045-.431Z" transform="translate(-45.225 -301.6)" fill="#407bff"/><path d="M96.519,337.775c1.89,0,3.422-3.034,3.422-6.778s-1.532-6.778-3.422-6.778H92.13v13.555Z" transform="translate(-85.056 -314.576)" fill="#263238"/><ellipse cx="3.422" cy="6.778" rx="3.422" ry="6.778" transform="translate(3.635 9.644)" fill="#263238"/><ellipse cx="2.401" cy="5.357" rx="2.401" ry="5.357" transform="translate(4.656 11.065)" fill="#407bff"/><path d="M109.469,280.057l5.909-13.205s-8.841-6.581-20.058-6.581c-18.181,0-17.556,2.451-23.64,7.771l2.656,1.873c4.725,0,5.119,7.489,5.874,9.6a.819.819,0,0,0,.772.546h28.487" transform="translate(-67.69 -260.27)" fill="#407bff"/><path d="M262.88,337.775c1.89,0,3.42-3.034,3.42-6.778s-1.531-6.778-3.42-6.778h-4.39v13.555Z" transform="translate(-226.951 -314.576)" fill="#263238"/><ellipse cx="3.422" cy="6.778" rx="3.422" ry="6.778" transform="translate(28.177 9.644)" fill="#263238"/><ellipse cx="2.401" cy="5.357" rx="2.401" ry="5.357" transform="translate(29.199 11.065)" fill="#407bff"/><path d="M244.539,316c-.544-2.473-3.147-9.049-6.268-9.049l-3.381-3.071h19.084c1.321,0,7.189.811,10.515,3.063,2.686,1.819,3.016,4.58,3.4,8.614a1.476,1.476,0,0,1-1.552,1.532c-7.646,0-16.9.029-20.269.039A1.517,1.517,0,0,1,244.539,316Z" transform="translate(-207.334 -297.303)" fill="#407bff"/><path d="M242.293,270.792H229.853a1.762,1.762,0,0,1-1.461-.768,18.263,18.263,0,0,0-5.631-5.114C235.338,264.91,242.293,270.792,242.293,270.792Z" transform="translate(-196.649 -264.21)" fill="#fff" opacity="0.8"/><path d="M121.488,265.516a15.757,15.757,0,0,1,4.188,4.466.531.531,0,0,1-.452.8H104.835c-2.163,0-1.445-5.387,9.853-5.791,1.065-.092,3.547-.1,4.92-.089A3.229,3.229,0,0,1,121.488,265.516Z" transform="translate(-95.021 -264.199)" fill="#fff" opacity="0.8"/><path d="M310.741,372l6.535.493a.4.4,0,0,1,.374.4v.452a.4.4,0,0,1-.4.4h-6.53a.406.406,0,0,1-.406-.4v-.94a.406.406,0,0,1,.431-.41Z" transform="translate(-271.101 -355.145)" fill="#263238"/><path d="M438.96,372.55l-1.795.362a.4.4,0,0,0-.326.4v.49a.4.4,0,0,0,.406.4h1.9a.4.4,0,0,0,.4-.452l-.1-.851a.406.406,0,0,0-.487-.35Z" transform="translate(-378.827 -355.609)" fill="#263238"/><path d="M297.453,319.083l-9.124-.443s-.094,1.617,3.288,1.961A8.9,8.9,0,0,0,297.453,319.083Z" transform="translate(-252.395 -309.837)" fill="#fff" opacity="0.8"/><path d="M46.644,326.67a2.778,2.778,0,0,1,.189-.772l.618-.018s.029,2.372-.867,2.223a.44.44,0,0,1-.074-.018Z" transform="translate(-46.316 -315.985)" opacity="0.3"/><path d="M415.119,320.62a10.406,10.406,0,0,1,.9.541,6.45,6.45,0,0,1,1.2,1.038,3.6,3.6,0,0,1-.388.087,4.072,4.072,0,0,1-3.5-1.522Z" transform="translate(-358.863 -311.518)" fill="#fff" opacity="0.8"/><path d="M360.27,338.48h6.456a1.109,1.109,0,0,1,.632.2l1.128.792a1.129,1.129,0,0,1,.475.771l.288,2.137a.962.962,0,0,1-.964,1.11h-6.9a1.136,1.136,0,0,1-1-.618l-1.289-2.514a1.017,1.017,0,0,1,.081-1.1l.323-.415A.964.964,0,0,1,360.27,338.48Z" transform="translate(-312.704 -326.685)" fill="#263238"/><path d="M139.822,373.05h12.626a.3.3,0,0,1,.3.327l-.065.734a.3.3,0,0,1-.3.274H139.755a.3.3,0,0,1-.3-.327l.065-.736A.3.3,0,0,1,139.822,373.05Z" transform="translate(-125.549 -356.041)" opacity="0.1"/><path d="M160.064,264.086l.756-.146-1.546,6.787h-.724Z" transform="translate(-141.76 -263.387)" fill="#407bff"/><path d="M171.827,314h-2.586l-.066.271a.386.386,0,0,0,.385.51h1.564a.694.694,0,0,0,.636-.51Z" transform="translate(-150.795 -305.897)" fill="#263238"/><path d="M112.846,314h-2.585l-.066.271a.386.386,0,0,0,.385.51h1.564a.694.694,0,0,0,.636-.51Z" transform="translate(-100.553 -305.897)" fill="#263238"/><path d="M159.906,316.219a.086.086,0,0,1-.086-.084l-.19-8.886a.089.089,0,0,1,.084-.089h0a.086.086,0,0,1,.086.084l.187,8.887a.087.087,0,0,1-.084.087Z" transform="translate(-142.671 -300.088)" opacity="0.1"/></g></g></svg>