<svg xmlns="http://www.w3.org/2000/svg" width="69" height="60" viewBox="0 0 69 60"><g transform="translate(-333.869 -254.789)"><g transform="translate(333.869 254.789)"><path d="M106.339,125.148c7.581-1.485,14.374-4.947,19.116-10.962,7.554-9.577,9.021-27.539-1.131-37.991-4.656-4.789-11.582-7.419-17.764-8.893-6.644-1.586-14.163-2.085-20.124.6-9.617,4.32-13.922,19.877-20.091,26.387s-5.305,20.371,5.883,25.491a70.288,70.288,0,0,0,18.477,5.645,44.045,44.045,0,0,0,8.73.549A47.085,47.085,0,0,0,106.339,125.148Z" transform="translate(-62.529 -66)" fill="#407bff"/><path d="M106.339,125.148c7.581-1.485,14.374-4.947,19.116-10.962,7.554-9.577,9.021-27.539-1.131-37.991-4.656-4.789-11.582-7.419-17.764-8.893-6.644-1.586-14.163-2.085-20.124.6-9.617,4.32-13.922,19.877-20.091,26.387s-5.305,20.371,5.883,25.491a70.288,70.288,0,0,0,18.477,5.645,44.045,44.045,0,0,0,8.73.549A47.085,47.085,0,0,0,106.339,125.148Z" transform="translate(-62.529 -66)" fill="#ecf2ff"/></g><g transform="translate(353.787 263.375)"><rect width="29.165" height="42.827" transform="translate(0 0)" fill="#fff" stroke="#263238" stroke-linecap="round" stroke-linejoin="round" stroke-width="0.1"/><rect width="0.922" height="42.827" transform="translate(28.243 0)" fill="#407bff" stroke="#263238" stroke-linecap="round" stroke-linejoin="round" stroke-width="0.1"/><rect width="0.922" height="8.468" transform="translate(28.243 17.632)" fill="#fff" stroke="#263238" stroke-linecap="round" stroke-linejoin="round" stroke-width="0.1"/><rect width="29.165" height="3.333" transform="translate(0 0)" fill="#407bff" stroke="#263238" stroke-linecap="round" stroke-linejoin="round" stroke-width="0.1"/><path d="M227.334,126.39h23.874a.574.574,0,0,1,.574.574v.289a.574.574,0,0,1-.574.574H227.334a.576.576,0,0,1-.574-.574v-.289a.576.576,0,0,1,.576-.574Z" transform="translate(-224.344 -125.411)" fill="#fff" stroke="#263238" stroke-linecap="round" stroke-linejoin="round" stroke-width="0.1"/><rect width="12.311" height="13.288" transform="translate(1.553 10.85)" fill="#407bff" stroke="#263238" stroke-linecap="round" stroke-linejoin="round" stroke-width="0.1"/><rect width="12.311" height="13.288" transform="translate(1.553 27.18)" fill="#407bff" stroke="#263238" stroke-linecap="round" stroke-linejoin="round" stroke-width="0.1"/><line x2="8.686" transform="translate(16.337 10.892)" fill="none" stroke="#263238" stroke-linecap="round" stroke-linejoin="round" stroke-width="0.1"/><line x2="8.686" transform="translate(16.337 14.428)" fill="none" stroke="#263238" stroke-linecap="round" stroke-linejoin="round" stroke-width="0.1"/><line x2="8.686" transform="translate(16.337 15.398)" fill="none" stroke="#263238" stroke-linecap="round" stroke-linejoin="round" stroke-width="0.1"/><line x2="8.686" transform="translate(16.337 16.367)" fill="none" stroke="#263238" stroke-linecap="round" stroke-linejoin="round" stroke-width="0.1"/><line x2="8.686" transform="translate(16.337 17.337)" fill="none" stroke="#263238" stroke-linecap="round" stroke-linejoin="round" stroke-width="0.1"/><line x2="8.686" transform="translate(16.337 18.306)" fill="none" stroke="#263238" stroke-linecap="round" stroke-linejoin="round" stroke-width="0.1"/><line x2="8.686" transform="translate(16.337 19.275)" fill="none" stroke="#263238" stroke-linecap="round" stroke-linejoin="round" stroke-width="0.1"/><line x2="8.686" transform="translate(16.337 20.245)" fill="none" stroke="#263238" stroke-linecap="round" stroke-linejoin="round" stroke-width="0.1"/><line x2="8.686" transform="translate(16.337 21.214)" fill="none" stroke="#263238" stroke-linecap="round" stroke-linejoin="round" stroke-width="0.1"/><line x2="8.686" transform="translate(16.337 22.184)" fill="none" stroke="#263238" stroke-linecap="round" stroke-linejoin="round" stroke-width="0.1"/><line x2="8.686" transform="translate(16.337 23.153)" fill="none" stroke="#263238" stroke-linecap="round" stroke-linejoin="round" stroke-width="0.1"/><line x2="5.003" transform="translate(16.337 11.863)" fill="none" stroke="#263238" stroke-linecap="round" stroke-linejoin="round" stroke-width="0.1"/><line x2="8.686" transform="translate(16.337 27.316)" fill="none" stroke="#263238" stroke-linecap="round" stroke-linejoin="round" stroke-width="0.1"/><line x2="8.686" transform="translate(16.337 30.851)" fill="none" stroke="#263238" stroke-linecap="round" stroke-linejoin="round" stroke-width="0.1"/><line x2="8.686" transform="translate(16.337 31.822)" fill="none" stroke="#263238" stroke-linecap="round" stroke-linejoin="round" stroke-width="0.1"/><line x2="8.686" transform="translate(16.337 32.79)" fill="none" stroke="#263238" stroke-linecap="round" stroke-linejoin="round" stroke-width="0.1"/><line x2="8.686" transform="translate(16.337 33.761)" fill="none" stroke="#263238" stroke-linecap="round" stroke-linejoin="round" stroke-width="0.1"/><line x2="8.686" transform="translate(16.337 34.659)" fill="none" stroke="#263238" stroke-linecap="round" stroke-linejoin="round" stroke-width="0.1"/><line x2="8.686" transform="translate(16.337 35.638)" fill="none" stroke="#263238" stroke-linecap="round" stroke-linejoin="round" stroke-width="0.1"/><line x2="8.686" transform="translate(16.337 36.615)" fill="none" stroke="#263238" stroke-linecap="round" stroke-linejoin="round" stroke-width="0.1"/><line x2="8.686" transform="translate(16.337 37.592)" fill="none" stroke="#263238" stroke-linecap="round" stroke-linejoin="round" stroke-width="0.1"/><line x2="8.686" transform="translate(16.337 38.571)" fill="none" stroke="#263238" stroke-linecap="round" stroke-linejoin="round" stroke-width="0.1"/><line x2="8.686" transform="translate(16.337 39.548)" fill="none" stroke="#263238" stroke-linecap="round" stroke-linejoin="round" stroke-width="0.1"/><line x2="5.003" transform="translate(16.337 28.286)" fill="none" stroke="#263238" stroke-linecap="round" stroke-linejoin="round" stroke-width="0.1"/><text transform="translate(1.452 6.059)" fill="#263238" font-size="2" font-family="BebasNeueRegular, Bebas Neue"><tspan x="0" y="0">NEWS</tspan></text><rect width="11.667" height="0.716" transform="translate(13.547 8.319)" fill="#407bff"/></g></g></svg>