<svg xmlns="http://www.w3.org/2000/svg" width="59.531" height="21.182" viewBox="0 0 59.531 21.182"><g transform="translate(0.001 -31.876)"><g transform="translate(-0.001 31.876)"><path d="M14.3,52.156a4.492,4.492,0,0,0-4.492,4.492,4.363,4.363,0,0,0,.04.564,4.488,4.488,0,0,0,8.925-.182c.01-.126.019-.254.019-.383A4.491,4.491,0,0,0,14.3,52.156Zm-2.248,2.8.916.916a1.551,1.551,0,0,0-.163.395H11.512A2.774,2.774,0,0,1,12.051,54.955Zm-.544,2.088h1.3a1.506,1.506,0,0,0,.163.39l-.918.917A2.811,2.811,0,0,1,11.506,57.044Zm2.4,2.395a2.8,2.8,0,0,1-1.3-.541l.913-.914a1.546,1.546,0,0,0,.39.158Zm0-4.285a1.56,1.56,0,0,0-.4.165L12.6,54.4a2.792,2.792,0,0,1,1.312-.543Zm.778-1.293A2.8,2.8,0,0,1,16,54.4l-.914.915a1.56,1.56,0,0,0-.4-.165V53.861Zm0,5.577V58.143a1.534,1.534,0,0,0,.389-.159l.914.914A2.8,2.8,0,0,1,14.688,59.437Zm1.86-1.082-.921-.922a1.518,1.518,0,0,0,.167-.389h1.291A2.8,2.8,0,0,1,16.548,58.355ZM15.8,56.266a1.573,1.573,0,0,0-.163-.395l.917-.916a2.8,2.8,0,0,1,.538,1.311H15.8Z" transform="translate(-3.908 -39.957)" fill="#a4a4a4"/><path d="M76.308,52.156a4.492,4.492,0,0,0-4.492,4.492,4.363,4.363,0,0,0,.04.564,4.488,4.488,0,0,0,8.925-.182c.01-.126.019-.254.019-.383A4.49,4.49,0,0,0,76.308,52.156Zm-2.249,2.8.915.916a1.551,1.551,0,0,0-.163.395H73.521A2.781,2.781,0,0,1,74.06,54.955Zm-.544,2.088h1.3a1.505,1.505,0,0,0,.163.39l-.917.917A2.787,2.787,0,0,1,73.516,57.044Zm2.4,2.395a2.8,2.8,0,0,1-1.3-.541l.913-.914a1.547,1.547,0,0,0,.39.158Zm0-4.285a1.56,1.56,0,0,0-.4.165l-.915-.915a2.789,2.789,0,0,1,1.312-.543Zm.778-1.293a2.8,2.8,0,0,1,1.312.543l-.915.915a1.519,1.519,0,0,0-.4-.165V53.861Zm0,5.577V58.143a1.534,1.534,0,0,0,.389-.159L78,58.9A2.8,2.8,0,0,1,76.7,59.437Zm1.859-1.082-.921-.921a1.5,1.5,0,0,0,.167-.389h1.291A2.8,2.8,0,0,1,78.557,58.355Zm-.752-2.089a1.551,1.551,0,0,0-.163-.395l.916-.916a2.8,2.8,0,0,1,.538,1.311H77.805Z" transform="translate(-28.617 -39.957)" fill="#a4a4a4"/><path d="M58.477,41.75V38.426a1.082,1.082,0,0,0-.917-1.07,44.25,44.25,0,0,1-4.523-.884c-1.447-.446-7.039-2.814-8.975-3.258s-10.67-2.818-19.034.081c-1.415.49-7.782,3.534-11.526,5.117-1.1.024-12.016,2.3-12.6,3.858a25.217,25.217,0,0,0-.87,2.712A6.4,6.4,0,0,0,.845,48.59a13.025,13.025,0,0,0,4.257.992c-.021-.112-.044-.223-.058-.337A5.173,5.173,0,0,1,5,48.568a5.394,5.394,0,1,1,10.789,0c0,.153-.01.3-.022.454a5.25,5.25,0,0,1-.176.97H15.6l26.777-.539c-.012-.069-.028-.138-.037-.208a5.152,5.152,0,0,1-.047-.677,5.395,5.395,0,0,1,10.789,0c0,.011,0,.021,0,.032l.114-.01,4.578-.862a3.9,3.9,0,0,0,1.753-3.5A3.089,3.089,0,0,0,58.477,41.75ZM31.915,38.6l-10,.306c.184-1.5-.7-1.835-.7-1.835C25.187,33.461,33.2,33.339,33.2,33.339Zm11.223-.458-9.113.306.826-5.107a21.588,21.588,0,0,1,7.4.978L43.6,36.489Zm5.138-.031H45.736L43.2,34.623c1.9.758,3.429,1.505,4.336,1.977A1.416,1.416,0,0,1,48.275,38.109Z" transform="translate(0.001 -31.876)" fill="#a4a4a4"/></g></g></svg>