<svg xmlns="http://www.w3.org/2000/svg" width="72" height="48" viewBox="0 0 72 48"><g transform="translate(0)"><g transform="translate(0)"><path d="M146.789,166.056c-2.1-7.2-12.545-11.254-21.827-9.37-8.1,1.645-11.264,7.425-20.294,7.444-8.4.015-15.9-2.2-23.545,3.86-6.014,4.769-5.825,11.159-4.809,17.439,2.78,17.166,14.41,22.3,33.745,16.522,9.24-2.763,20.349-7.133,27.842-12.894C146.9,182.143,149.4,174.989,146.789,166.056Z" transform="translate(-75.767 -156.226)" fill="#407bff"/><path d="M146.789,166.056c-2.1-7.2-12.545-11.254-21.827-9.37-8.1,1.645-11.264,7.425-20.294,7.444-8.4.015-15.9-2.2-23.545,3.86-6.014,4.769-5.825,11.159-4.809,17.439,2.78,17.166,14.41,22.3,33.745,16.522,9.24-2.763,20.349-7.133,27.842-12.894C146.9,182.143,149.4,174.989,146.789,166.056Z" transform="translate(-75.767 -156.226)" fill="#ecf2ff"/></g><g transform="translate(5.242 19.542)"><path d="M210.422,337.775c-1.89,0-3.422-3.034-3.422-6.778s1.532-6.778,3.422-6.778H214.8v13.555Z" transform="translate(-178.004 -314.575)" fill="#263238"/><ellipse cx="3.422" cy="6.778" rx="3.422" ry="6.778" transform="translate(33.327 9.644)" fill="#263238"/><path d="M376.741,337.775c-1.89,0-3.42-3.034-3.42-6.778s1.525-6.778,3.42-6.778h4.39v13.555Z" transform="translate(-368.84 -314.575)" fill="#263238"/><ellipse cx="3.422" cy="6.778" rx="3.422" ry="6.778" transform="translate(8.886 9.644)" fill="#263238"/><path d="M48.917,321.387l2.344-.578A2.8,2.8,0,0,0,53.1,319.33h0a2.8,2.8,0,0,1,.65-.852l.576-.513a2.8,2.8,0,0,0,.926-2.36l-.317-3.318a2.8,2.8,0,0,0-1.994-2.421l-1.676-.495-6.045-.431Z" transform="translate(5.456 -301.6)" fill="#407bff"/><path d="M95.552,337.775c-1.89,0-3.422-3.034-3.422-6.778s1.532-6.778,3.422-6.778h4.389v13.555Z" transform="translate(-46.29 -314.575)" fill="#263238"/><ellipse cx="3.422" cy="6.778" rx="3.422" ry="6.778" transform="translate(50.245 9.644)" fill="#263238"/><ellipse cx="2.401" cy="5.357" rx="2.401" ry="5.357" transform="translate(51.266 11.065)" fill="#407bff"/><path d="M77.589,280.057,71.68,266.852s8.841-6.581,20.058-6.581c18.181,0,17.556,2.451,23.64,7.771l-2.656,1.873c-4.725,0-5.119,7.489-5.874,9.6a.819.819,0,0,1-.772.546H77.589" transform="translate(-58.643 -260.27)" fill="#407bff"/><path d="M261.91,337.775c-1.89,0-3.42-3.034-3.42-6.778s1.531-6.778,3.42-6.778h4.39v13.555Z" transform="translate(-237.115 -314.575)" fill="#263238"/><ellipse cx="3.422" cy="6.778" rx="3.422" ry="6.778" transform="translate(25.704 9.644)" fill="#263238"/><ellipse cx="2.401" cy="5.357" rx="2.401" ry="5.357" transform="translate(26.724 11.065)" fill="#407bff"/><path d="M258.248,316c.544-2.473,3.147-9.049,6.268-9.049l3.381-3.071H248.813c-1.321,0-7.189.811-10.515,3.063-2.686,1.819-3.016,4.58-3.4,8.614a1.476,1.476,0,0,0,1.552,1.532c7.646,0,16.9.029,20.269.039A1.517,1.517,0,0,0,258.248,316Z" transform="translate(-234.729 -297.303)" fill="#407bff"/><path d="M222.76,270.792H235.2a1.762,1.762,0,0,0,1.461-.768,18.263,18.263,0,0,1,5.631-5.114C229.716,264.91,222.76,270.792,222.76,270.792Z" transform="translate(-207.679 -264.21)" fill="#fff" opacity="0.8"/><path d="M108.125,265.516a15.757,15.757,0,0,0-4.188,4.466.531.531,0,0,0,.452.8h20.388c2.163,0,1.445-5.387-9.853-5.791-1.065-.092-3.547-.1-4.92-.089A3.229,3.229,0,0,0,108.125,265.516Z" transform="translate(-73.867 -264.199)" fill="#fff" opacity="0.8"/><path d="M317.219,372l-6.535.493a.4.4,0,0,0-.374.4v.452a.4.4,0,0,0,.4.4h6.53a.406.406,0,0,0,.406-.4v-.94a.406.406,0,0,0-.431-.41Z" transform="translate(-296.134 -355.145)" fill="#263238"/><path d="M437.431,372.55l1.795.362a.4.4,0,0,1,.326.4v.49a.4.4,0,0,1-.406.4h-1.9a.4.4,0,0,1-.4-.452l.1-.851a.406.406,0,0,1,.487-.35Z" transform="translate(-436.84 -355.609)" fill="#263238"/><path d="M288.328,319.083l9.124-.443s.094,1.617-3.288,1.961A8.9,8.9,0,0,1,288.328,319.083Z" transform="translate(-272.662 -309.837)" fill="#fff" opacity="0.8"/><path d="M47.317,326.67a2.778,2.778,0,0,0-.189-.772l-.618-.018s-.029,2.372.867,2.223a.44.44,0,0,0,.074-.018Z" transform="translate(13.08 -315.985)" opacity="0.3"/><path d="M415.426,320.62a10.406,10.406,0,0,0-.9.541,6.45,6.45,0,0,0-1.2,1.038,3.6,3.6,0,0,0,.388.087,4.072,4.072,0,0,0,3.5-1.522Z" transform="translate(-410.958 -311.518)" fill="#fff" opacity="0.8"/><path d="M367.965,338.48h-6.456a1.109,1.109,0,0,0-.632.2l-1.128.792a1.129,1.129,0,0,0-.475.771l-.288,2.137a.962.962,0,0,0,.964,1.11h6.9a1.136,1.136,0,0,0,1-.618l1.289-2.514a1.017,1.017,0,0,0-.081-1.1l-.323-.415A.964.964,0,0,0,367.965,338.48Z" transform="translate(-354.806 -326.685)" fill="#263238"/><path d="M152.382,373.05H139.755a.3.3,0,0,0-.3.327l.065.734a.3.3,0,0,0,.3.274h12.628a.3.3,0,0,0,.3-.327l-.065-.736A.3.3,0,0,0,152.382,373.05Z" transform="translate(-105.93 -356.041)" opacity="0.1"/><path d="M159.306,264.086l-.756-.146,1.546,6.787h.724Z" transform="translate(-116.885 -263.387)" fill="#407bff"/><path d="M169.154,314h2.586l.066.271a.386.386,0,0,1-.385.51h-1.564a.694.694,0,0,1-.636-.51Z" transform="translate(-129.462 -305.897)" fill="#263238"/><path d="M110.174,314h2.585l.066.271a.386.386,0,0,1-.385.51h-1.564a.694.694,0,0,1-.636-.51Z" transform="translate(-61.743 -305.897)" fill="#263238"/><path d="M159.711,316.219a.086.086,0,0,0,.086-.084l.19-8.886a.089.089,0,0,0-.084-.089h0a.086.086,0,0,0-.086.084l-.187,8.887a.087.087,0,0,0,.084.087Z" transform="translate(-116.222 -300.088)" opacity="0.1"/></g></g></svg>