<svg xmlns="http://www.w3.org/2000/svg" xmlns:xlink="http://www.w3.org/1999/xlink" width="155" height="204" viewBox="0 0 155 204"><defs><linearGradient id="a" x1="0.5" x2="0.5" y2="1.732" gradientUnits="objectBoundingBox"><stop offset="0" stop-color="#2db5f3"/><stop offset="1" stop-color="#fff"/></linearGradient><clipPath id="b"><path d="M226.75,117.3l2.436,112c2.359,15.737-5.315,24.009-22.042,18.947L107.99,211.472c-17.041-9.729-12.656-24.342-.27-36.324l5.838-6.777s-15.192-69.816,48.172-76.3c0,0,20.914-3.648,37.212,16.1l4.973-3.5C217.221,95.287,227.5,100.966,226.75,117.3Z" transform="translate(-96.766 -91.805)" fill="none"/></clipPath><linearGradient id="c" x1="0.653" y1="0.867" x2="0.127" y2="0.149" gradientUnits="objectBoundingBox"><stop offset="0" stop-color="#1d1d1b"/><stop offset="1" stop-color="#fff" stop-opacity="0"/></linearGradient><radialGradient id="d" cx="0.169" cy="0.541" r="0.577" gradientTransform="translate(-0.57) scale(2.14 1)" gradientUnits="objectBoundingBox"><stop offset="0" stop-color="#9d9d9c" stop-opacity="0.902"/><stop offset="1" stop-color="#fff"/></radialGradient></defs><g transform="translate(-129 -333)"><text transform="translate(129 531)" fill="#00b2b8" font-size="24" font-family="Montserrat-ExtraBold, Montserrat" font-weight="800"><tspan x="0" y="0">LAKU</tspan><tspan y="0" fill="#a4a4a4">MOBIL</tspan></text><g transform="translate(140 333)"><path d="M204.041,98.619c-3.135-16.042-14.462-19.1-25.169-6.806l-75.661,86.9c-10.707,12.3-6.98,26.958,8.278,32.578l95.733,35.25c15.26,5.62,25.178-2.907,22.042-18.947Z" transform="translate(-96.842 -84.268)" fill="url(#a)"/><g transform="translate(0 5.833)"><g transform="translate(0 0)"><g clip-path="url(#b)"><g transform="translate(21.613 17.631)"><path d="M221.63,192.882c1.182,6.553.292,12.583-2,15.861a5.624,5.624,0,0,1-3.54,2.51c-4.732.862-9.924-5.962-11.6-15.242s.806-17.51,5.538-18.373a5.121,5.121,0,0,1,3.2.517,7.135,7.135,0,0,1,.667.375s0-.005.006,0C217.317,180.657,220.41,186.115,221.63,192.882Z" transform="translate(-143.109 -128.82)" fill="#e8e8e8"/><path d="M216.882,178.814c-.007-.009-.006,0-.006,0" transform="translate(-146.086 -129.102)" fill="none"/><path d="M221.63,192.882c1.182,6.553.292,12.583-2,15.861a5.624,5.624,0,0,1-3.54,2.51c-4.732.862-9.924-5.962-11.6-15.242s.806-17.51,5.538-18.373a5.121,5.121,0,0,1,3.2.517,7.135,7.135,0,0,1,.667.375s0-.005.006,0C217.317,180.657,220.41,186.115,221.63,192.882Z" transform="translate(-143.109 -128.82)" fill="none"/><path d="M221.63,192.882c1.182,6.553.292,12.583-2,15.861a5.624,5.624,0,0,1-3.54,2.51c-4.732.862-9.924-5.962-11.6-15.242s.806-17.51,5.538-18.373a5.121,5.121,0,0,1,3.2.517,7.135,7.135,0,0,1,.667.375s0-.005.006,0C217.317,180.657,220.41,186.115,221.63,192.882Z" transform="translate(-143.109 -128.82)" fill="none"/><path d="M221.63,192.882c1.182,6.553.292,12.583-2,15.861a5.624,5.624,0,0,1-3.54,2.51c-4.732.862-9.924-5.962-11.6-15.242s.806-17.51,5.538-18.373a5.121,5.121,0,0,1,3.2.517,7.135,7.135,0,0,1,.667.375s0-.005.006,0C217.317,180.657,220.41,186.115,221.63,192.882Z" transform="translate(-143.109 -128.82)" fill="none"/><path d="M219.537,143.467c-7.663-14.193-17.763-24.616-27.888-27.787a20.785,20.785,0,0,0-7.1-.983,18.261,18.261,0,0,0-2.5.278C162.245,118.589,151.5,155.535,157.9,191c6.319,35.064,28.711,60.427,48.357,57.492.22-.031.445-.067.663-.107a20.364,20.364,0,0,0,5.318-1.755c.005,0,.005,0,.009-.007,11.639-5.692,19.181-22.45,20.452-43.238a114.515,114.515,0,0,0-13.161-59.923Zm-7.6,91.861c-17.68,5.329-37.5-18.913-42.936-49.072s3.058-57.364,19.362-60.34c14.067-2.567,34.248,14.053,40.341,47.848C234.144,203.924,225.624,231.207,211.94,235.328Z" transform="translate(-132.055 -114.606)" fill="#3f3b3a"/><path d="M191.757,129.122c-16.3,2.976-24.8,30.179-19.362,60.34s25.257,54.4,42.936,49.072c13.684-4.121,22.2-31.4,16.766-61.564C226,143.174,205.824,126.554,191.757,129.122Zm17.885,92.854c-10.821,1.974-24.937-12.424-28.658-33.072s2.213-41.351,14.432-43.581c10.823-1.975,23.363,15.047,27.086,35.7S220.467,220,209.642,221.976Z" transform="translate(-135.447 -117.812)" fill="#fff"/><path d="M198.153,150.083c-12.219,2.231-18.155,22.936-14.432,43.581s17.837,35.047,28.658,33.072,16.581-20.312,12.86-40.957S208.977,148.108,198.153,150.083Zm15.138,73.064c-3.6,1.432-7.5.724-11.224-1.573-7.515-4.613-14.337-15.647-16.658-28.528-2.493-13.824.141-28.2,5.883-35.224,2.264-2.771,5.009-4.393,8.118-4.39,8.982.014,20.4,11.326,23.876,30.6S221.641,219.826,213.291,223.148Z" transform="translate(-138.184 -122.573)" fill="#231d1b"/><path d="M225.886,185.054c3.476,19.274-1.645,35.8-9.995,39.118-3.6,1.432-7.5.724-11.224-1.573a11.482,11.482,0,0,0,7.843-2.169c14.345-11.8,8.916-41.023-1.135-53.137s-17.483-8.445-17.483-8.445c2.264-2.771,5.009-4.393,8.118-4.39C210.993,154.471,222.413,165.783,225.886,185.054Z" transform="translate(-140.785 -123.597)" fill="#eae4e4"/><path d="M209.33,168.422c-10.053-12.116-17.483-8.445-17.483-8.445-5.742,7.022-8.376,21.4-5.883,35.224,2.321,12.881,9.143,23.915,16.658,28.528a11.482,11.482,0,0,0,7.843-2.169C224.811,209.755,219.381,180.536,209.33,168.422Zm-.684,43.5s-13.33,2.432-16.495-17.852,5.451-23.415,5.451-23.415c6.87-2.174,11.777,3.6,11.926,3.779,0,0,0-.005.006,0,3.412,2.124,6.5,7.582,7.725,14.35,1.182,6.553.292,12.583-2,15.861C214,208.607,208.646,211.923,208.646,211.923Z" transform="translate(-138.738 -124.727)" fill="#3f3b3a"/><path d="M217.187,207.779c-1.262,3.957-6.613,7.274-6.613,7.274s-13.33,2.432-16.495-17.852,5.451-23.415,5.451-23.415c6.87-2.174,11.777,3.6,11.926,3.779a7.145,7.145,0,0,0-.667-.375,5.121,5.121,0,0,0-3.2-.517c-4.732.863-7.211,9.089-5.538,18.373s6.866,16.1,11.6,15.242A5.623,5.623,0,0,0,217.187,207.779Z" transform="translate(-140.666 -127.856)" fill="#b5b5b5"/><path d="M221.63,192.882c1.182,6.553.292,12.583-2,15.861a5.624,5.624,0,0,1-3.54,2.51c-4.732.862-9.924-5.962-11.6-15.242s.806-17.51,5.538-18.373a5.121,5.121,0,0,1,3.2.517,7.135,7.135,0,0,1,.667.375s0-.005.006,0C217.317,180.657,220.41,186.115,221.63,192.882Z" transform="translate(-143.109 -128.82)" fill="none"/><path d="M199.06,248.475a99.443,99.443,0,0,1-13.231,2.429c-26,3.125-48.131-10.217-58.838-59.08-8.332-38.043,8.724-71.289,34.487-75.991a66.735,66.735,0,0,1,15.874-1.158,18.265,18.265,0,0,0-2.5.278c-19.806,3.614-30.548,40.56-24.153,76.029C157.022,226.047,179.414,251.41,199.06,248.475Z" transform="translate(-124.859 -114.585)" fill="#231d1b"/></g><path d="M152.254,139.83s-24.847,55.88,22.657,106.613c0,0-.229,8.185-10.918-4.636,0,0,5.481,6.755-.411,4.274s-25.942-21.512-28.5-58.087,13.886-54.777,13.886-54.777,2.969-2.252-1.69,9.329C147.275,142.547,154.748,132.64,152.254,139.83Z" transform="translate(-105.542 -101.126)" fill="url(#c)"/></g></g><path d="M214.025,153.563s-13.678-19.025-29.312-1.93-9.331,71.137,25.75,77.478c0,0,7.674,2.482,3.563,6.894s-18.911-.552-30.97-24.264-16.579-64.933,11.922-72.1C219.594,133.446,225.043,167.83,214.025,153.563Z" transform="translate(-114.508 -102.447)" fill="url(#d)"/></g></g></g></svg>